<svg width="46" height="46" viewBox="0 0 46 46" fill="none" xmlns="http://www.w3.org/2000/svg">
<path d="M15.3335 34.5L19.7227 38.8892C20.152 39.3216 20.6626 39.6646 21.2251 39.8989C21.7877 40.1329 22.3909 40.2535 23.0002 40.2535C23.6095 40.2535 24.2126 40.1329 24.7752 39.8989C25.3377 39.6646 25.8483 39.3216 26.2777 38.8892L30.6668 34.5H34.5002C36.5336 34.5 38.4836 33.6923 39.9213 32.2546C41.3591 30.8167 42.1668 28.8667 42.1668 26.8333V13.4167C42.1668 11.3833 41.3591 9.43341 39.9213 7.99562C38.4836 6.55786 36.5336 5.75 34.5002 5.75H11.5002C9.46683 5.75 7.51679 6.55786 6.07901 7.99562C4.64122 9.43341 3.8335 11.3833 3.8335 13.4167V26.8333C3.8335 28.8667 4.64122 30.8167 6.07901 32.2546C7.51679 33.6923 9.46683 34.5 11.5002 34.5H15.3335Z" stroke="#0B2545" stroke-width="1.5" stroke-linecap="round" stroke-linejoin="round"/>
<path d="M31.1672 17H12.0005" stroke="#0B2545" stroke-width="3" stroke-linecap="round" stroke-linejoin="round"/>
<path d="M23.5005 25H12.0005" stroke="#0B2545" stroke-width="3" stroke-linecap="round" stroke-linejoin="round"/>
</svg>
