<svg width="20" height="20" viewBox="0 0 20 20" fill="none" xmlns="http://www.w3.org/2000/svg">
<path d="M3.33325 4.99967C3.33325 4.55765 3.50885 4.13372 3.82141 3.82116C4.13397 3.5086 4.55789 3.33301 4.99992 3.33301H14.9999C15.4419 3.33301 15.8659 3.5086 16.1784 3.82116C16.491 4.13372 16.6666 4.55765 16.6666 4.99967V12.4997C16.6666 12.9417 16.491 13.3656 16.1784 13.6782C15.8659 13.9907 15.4419 14.1663 14.9999 14.1663H7.49992L4.16659 17.083V14.1663H4.99992C4.55789 14.1663 4.13397 13.9907 3.82141 13.6782C3.50885 13.3656 3.33325 12.9417 3.33325 12.4997V4.99967Z" fill="#08233F"/>
</svg>
