<svg width="19" height="19" viewBox="0 0 19 19" fill="none" xmlns="http://www.w3.org/2000/svg">
<path d="M13.8541 6.33301H8.31242C7.21936 6.33301 6.33325 7.21911 6.33325 8.31217V13.8538C6.33325 14.9469 7.21936 15.833 8.31242 15.833H13.8541C14.9471 15.833 15.8333 14.9469 15.8333 13.8538V8.31217C15.8333 7.21911 14.9471 6.33301 13.8541 6.33301Z" stroke="#0B2545" stroke-width="1.34583"/>
<path d="M12.6667 6.33366V4.75033C12.6667 4.3304 12.4999 3.92767 12.203 3.63074C11.9061 3.33381 11.5033 3.16699 11.0834 3.16699H4.75008C4.33016 3.16699 3.92743 3.33381 3.6305 3.63074C3.33356 3.92767 3.16675 4.3304 3.16675 4.75033V11.0837C3.16675 11.5036 3.33356 11.9063 3.6305 12.2032C3.92743 12.5002 4.33016 12.667 4.75008 12.667H6.33341" stroke="#0B2545" stroke-width="1.34583"/>
</svg>
