<svg width="23" height="23" viewBox="0 0 23 23" fill="none" xmlns="http://www.w3.org/2000/svg">
<circle cx="8.25" cy="7.25" r="2.45" stroke="#8494A8" stroke-width="1.6"/>
<circle cx="15.75" cy="8.25" r="2" stroke="#8494A8" stroke-width="1.5"/>
<path d="M8.5 13.7998C10.0407 13.7998 11.3967 14.1656 12.3398 14.7158C13.3026 15.2775 13.7002 15.9362 13.7002 16.5C13.7002 17.0638 13.3026 17.7225 12.3398 18.2842C11.3967 18.8344 10.0407 19.2002 8.5 19.2002C6.95933 19.2002 5.60333 18.8344 4.66016 18.2842C3.6974 17.7225 3.2998 17.0638 3.2998 16.5C3.2998 15.9362 3.6974 15.2775 4.66016 14.7158C5.60333 14.1656 6.95933 13.7998 8.5 13.7998Z" stroke="#8494A8" stroke-width="1.6"/>
<path d="M16 14.7002C16.981 14.7002 17.8387 14.9743 18.4316 15.3818C19.0277 15.7916 19.2998 16.2875 19.2998 16.75C19.2998 17.2125 19.0277 17.7084 18.4316 18.1182C17.8387 18.5257 16.981 18.7998 16 18.7998C15.019 18.7998 14.1613 18.5257 13.5684 18.1182C12.9723 17.7084 12.7002 17.2125 12.7002 16.75C12.7002 16.2875 12.9723 15.7916 13.5684 15.3818C14.1613 14.9743 15.019 14.7002 16 14.7002Z" stroke="#8494A8" stroke-width="1.4"/>
</svg>
