<svg width="22" height="22" viewBox="0 0 22 22" fill="none" xmlns="http://www.w3.org/2000/svg">
<path d="M10.9999 19.2497C10.9999 19.2497 4.58325 15.1247 4.58325 10.083C4.59168 9.3418 4.82455 8.62055 5.25118 8.01437C5.6778 7.40819 6.27813 6.94554 6.973 6.68745C7.66787 6.42935 8.42465 6.38793 9.14354 6.56863C9.86244 6.74933 10.5097 7.14368 10.9999 7.69967C11.4902 7.14368 12.1374 6.74933 12.8563 6.56863C13.5752 6.38793 14.332 6.42935 15.0268 6.68745C15.7217 6.94554 16.322 7.40819 16.7487 8.01437C17.1753 8.62055 17.4082 9.3418 17.4166 10.083C17.4166 15.1247 10.9999 19.2497 10.9999 19.2497Z" stroke="#5E6E85" stroke-width="1.65" stroke-linejoin="round"/>
</svg>
