<svg width="18" height="18" viewBox="0 0 18 18" fill="none" xmlns="http://www.w3.org/2000/svg">
<path d="M9 16.5C9 16.5 14.25 11.625 14.25 7.5C14.25 6.81056 14.1142 6.12787 13.8504 5.49091C13.5865 4.85395 13.1998 4.2752 12.7123 3.78769C12.2248 3.30018 11.646 2.91347 11.0091 2.64963C10.3721 2.3858 9.68944 2.25 9 2.25C8.31056 2.25 7.62787 2.3858 6.99091 2.64963C6.35395 2.91347 5.7752 3.30018 5.28769 3.78769C4.80018 4.2752 4.41347 4.85395 4.14963 5.49091C3.8858 6.12787 3.75 6.81056 3.75 7.5C3.75 11.625 9 16.5 9 16.5Z" stroke="#8FA3BB" stroke-width="1.2"/>
<path d="M8.99995 9.3002C9.99406 9.3002 10.8 8.49431 10.8 7.5002C10.8 6.50608 9.99406 5.7002 8.99995 5.7002C8.00584 5.7002 7.19995 6.50608 7.19995 7.5002C7.19995 8.49431 8.00584 9.3002 8.99995 9.3002Z" stroke="#8FA3BB" stroke-width="1.2"/>
</svg>
