<svg width="23" height="23" viewBox="0 0 23 23" fill="none" xmlns="http://www.w3.org/2000/svg">
<circle cx="11.5" cy="7.5" r="2.65" stroke="#8494A8" stroke-width="1.7"/>
<path d="M11.5 14.8496C13.3461 14.8496 14.9775 15.1726 16.1152 15.6602C16.6854 15.9046 17.0924 16.1741 17.3447 16.4297C17.5934 16.6817 17.6504 16.8732 17.6504 17C17.6504 17.1268 17.5934 17.3183 17.3447 17.5703C17.0924 17.8259 16.6854 18.0954 16.1152 18.3398C14.9775 18.8274 13.3461 19.1504 11.5 19.1504C9.65386 19.1504 8.02251 18.8274 6.88477 18.3398C6.31456 18.0954 5.90756 17.8259 5.65527 17.5703C5.40661 17.3183 5.34961 17.1268 5.34961 17C5.34961 16.8732 5.40661 16.6817 5.65527 16.4297C5.90756 16.1741 6.31456 15.9046 6.88477 15.6602C8.02251 15.1726 9.65386 14.8496 11.5 14.8496Z" stroke="#8494A8" stroke-width="1.7"/>
</svg>
