<svg width="28" height="28" viewBox="0 0 28 28" fill="none" xmlns="http://www.w3.org/2000/svg">
<path d="M9.33333 9.33301V6.99967C9.33333 5.762 9.825 4.57501 10.7002 3.69984C11.5753 2.82467 12.7623 2.33301 14 2.33301C15.2377 2.33301 16.4247 2.82467 17.2998 3.69984C18.175 4.57501 18.6667 5.762 18.6667 6.99967V9.33301M7 9.33301H21L19.8333 22.1663C19.8333 22.7852 19.5875 23.3787 19.1499 23.8163C18.7123 24.2538 18.1188 24.4997 17.5 24.4997H10.5C9.88116 24.4997 9.28767 24.2538 8.85008 23.8163C8.4125 23.3787 8.16667 22.7852 8.16667 22.1663L7 9.33301Z" stroke="white" stroke-opacity="0.5" stroke-width="1.75" stroke-linecap="round" stroke-linejoin="round"/>
</svg>
