<svg width="46" height="46" viewBox="0 0 46 46" fill="none" xmlns="http://www.w3.org/2000/svg">
<path d="M36.4167 9.58301H9.58333C7.46624 9.58301 5.75 11.2992 5.75 13.4163V32.583C5.75 34.7001 7.46624 36.4163 9.58333 36.4163H36.4167C38.5338 36.4163 40.25 34.7001 40.25 32.583V13.4163C40.25 11.2992 38.5338 9.58301 36.4167 9.58301Z" stroke="white" stroke-opacity="0.5" stroke-width="2.68333"/>
<path d="M16.2916 22.6168C18.1969 22.6168 19.7416 21.0722 19.7416 19.1668C19.7416 17.2614 18.1969 15.7168 16.2916 15.7168C14.3862 15.7168 12.8416 17.2614 12.8416 19.1668C12.8416 21.0722 14.3862 22.6168 16.2916 22.6168Z" fill="white" fill-opacity="0.5"/>
<path d="M7.66675 32.5833L17.2501 23L24.9167 28.75L30.6667 24.9167L38.3334 32.5833" stroke="white" stroke-opacity="0.5" stroke-width="2.68333" stroke-linecap="round" stroke-linejoin="round"/>
</svg>
