<svg width="19" height="19" viewBox="0 0 19 19" fill="none" xmlns="http://www.w3.org/2000/svg">
<path d="M3.95825 5.54199H15.0416M7.91659 5.54199V3.95866C7.91659 3.7487 7.99999 3.54733 8.14846 3.39887C8.29693 3.2504 8.49829 3.16699 8.70825 3.16699H10.2916C10.5015 3.16699 10.7029 3.2504 10.8514 3.39887C10.9998 3.54733 11.0833 3.7487 11.0833 3.95866V5.54199M4.74992 5.54199L5.54159 15.042C5.54159 15.4619 5.7084 15.8646 6.00533 16.1616C6.30227 16.4585 6.70499 16.6253 7.12492 16.6253H11.8749C12.2948 16.6253 12.6976 16.4585 12.9945 16.1616C13.2914 15.8646 13.4583 15.4619 13.4583 15.042L14.2499 5.54199" stroke="#0B2545" stroke-width="1.34583" stroke-linecap="round" stroke-linejoin="round"/>
</svg>
