<svg width="66" height="66" viewBox="0 0 66 66" fill="none" xmlns="http://www.w3.org/2000/svg">
<mask id="path-1-inside-1_64_6845" fill="white">
<path d="M0 20C0 8.95431 8.95431 0 20 0H46C57.0457 0 66 8.95431 66 20V46C66 57.0457 57.0457 66 46 66H20C8.95431 66 0 57.0457 0 46V20Z"/>
</mask>
<path d="M0 20C0 8.95431 8.95431 0 20 0H46C57.0457 0 66 8.95431 66 20V46C66 57.0457 57.0457 66 46 66H20C8.95431 66 0 57.0457 0 46V20Z" fill="#0B2545"/>
<path d="M20 0V1H46V0V-1H20V0ZM66 20H65V46H66H67V20H66ZM46 66V65H20V66V67H46V66ZM0 46H1V20H0H-1V46H0ZM20 66V65C9.50659 65 1 56.4934 1 46H0H-1C-1 57.598 8.40202 67 20 67V66ZM66 46H65C65 56.4934 56.4934 65 46 65V66V67C57.598 67 67 57.598 67 46H66ZM46 0V1C56.4934 1 65 9.50659 65 20H66H67C67 8.40202 57.598 -1 46 -1V0ZM20 0V-1C8.40202 -1 -1 8.40202 -1 20H0H1C1 9.50659 9.50659 1 20 1V0Z" fill="white" fill-opacity="0.12" mask="url(#path-1-inside-1_64_6845)"/>
<g clip-path="url(#clip0_64_6845)">
<path d="M49 49H38.3315L45.2877 22.5693L27.6739 49H17V38.2577L43.4613 20.6456L17 27.6505V17H49V49Z" fill="#CBE84C"/>
</g>
<defs>
<clipPath id="clip0_64_6845">
<rect width="32" height="32" fill="white" transform="translate(17 17)"/>
</clipPath>
</defs>
</svg>